<svg xmlns="http://www.w3.org/2000/svg" viewBox="0 0 190 190" title="react-query" style="font-size: var(--size); width: var(--size); height: var(--size); fill: white; stroke: var(--stroke-color); --size: 48px; --fill-color: white;"><g fill="white" fill-rule="evenodd"><path d="M80.397 64h29.211a5 5 0 0 1 4.337 2.512l14.632 25.5a5 5 0 0 1 0 4.976l-14.632 25.5a5 5 0 0 1-4.337 2.512H80.397a5 5 0 0 1-4.337-2.512l-14.632-25.5a5 5 0 0 1 0-4.976l14.632-25.5A5 5 0 0 1 80.397 64Zm25.59 6.277a5 5 0 0 1 4.339 2.513l11.017 19.224a5 5 0 0 1 0 4.972l-11.017 19.224a5 5 0 0 1-4.338 2.513h-21.97a5 5 0 0 1-4.339-2.513L68.662 96.986a5 5 0 0 1 0-4.972L79.679 72.79a5 5 0 0 1 4.338-2.513h21.97Zm-3.906 6.864H87.924a5 5 0 0 0-4.335 2.51l-7.1 12.358a5 5 0 0 0 0 4.982l7.1 12.358a5 5 0 0 0 4.335 2.51h14.157a5 5 0 0 0 4.335-2.51l7.1-12.358a5 5 0 0 0 0-4.982l-7.1-12.358a5 5 0 0 0-4.335-2.51Zm-3.762 6.571a5 5 0 0 1 4.334 2.506l3.33 5.788a5 5 0 0 1 0 4.988l-3.33 5.788a5 5 0 0 1-4.334 2.506h-6.633a5 5 0 0 1-4.334-2.506l-3.33-5.788a5 5 0 0 1 0-4.988l3.33-5.788a5 5 0 0 1 4.334-2.506h6.633Zm-3.315 6.473a4.313 4.313 0 1 0-.003 8.63 4.313 4.313 0 1 0 .003-8.63ZM60 94.5h7.768M54.86 108.358a2.713 2.713 0 0 1 3.718 1.041l.475.845a269.421 269.421 0 0 0 11.888 19.191c4.867 7.15 10.34 14.39 16.421 21.716a2.776 2.776 0 0 1-.296 3.847l-.612.537c-20.107 17.568-33.176 21.078-39.206 10.527-5.898-10.32-3.764-29.08 6.403-56.28a2.748 2.748 0 0 1 1.21-1.424Zm85.674 20.684a2.708 2.708 0 0 1 3.126 2.152l.153.792c4.97 26.01 1.47 39.014-10.497 39.014-11.706 0-26.607-11.091-44.703-33.273a2.725 2.725 0 0 1-.613-1.745 2.712 2.712 0 0 1 2.73-2.694l.955.007c7.62.041 15.03-.223 22.226-.794 8.498-.673 17.373-1.826 26.623-3.46Zm6.875-55.23c.523-1.41 2.1-2.149 3.546-1.663l.788.266c25.84 8.803 35.66 18.477 29.455 29.022-6.068 10.314-23.714 17.823-52.936 22.527a2.852 2.852 0 0 1-1.88-.345 2.726 2.726 0 0 1-.993-3.772l.5-.837c3.988-6.694 7.592-13.356 10.813-19.986 3.803-7.83 7.372-16.233 10.707-25.212Zm-85.67-7.776a2.852 2.852 0 0 1 1.878.345 2.726 2.726 0 0 1 .994 3.772l-.5.837c-3.988 6.694-7.592 13.356-10.813 19.986-3.803 7.83-7.372 16.233-10.707 25.212-.523 1.41-2.1 2.149-3.546 1.663l-.788-.266c-25.84-8.803-35.66-18.477-29.455-29.022C14.87 78.25 32.516 70.74 61.738 66.036Zm41.807-31.57c20.107-17.57 33.176-21.079 39.206-10.528 5.898 10.32 3.764 29.08-6.403 56.28a2.748 2.748 0 0 1-1.21 1.424 2.713 2.713 0 0 1-3.717-1.041l-.475-.845a269.421 269.421 0 0 0-11.888-19.191c-4.867-7.15-10.34-14.39-16.421-21.716a2.776 2.776 0 0 1 .296-3.847ZM57.684 18c11.706 0 26.607 11.091 44.703 33.273.402.492.618 1.11.613 1.745a2.712 2.712 0 0 1-2.73 2.694l-.955-.007c-7.62-.041-15.03.223-22.226.794-8.498.673-17.373 1.826-26.623 3.46a2.708 2.708 0 0 1-3.126-2.153l-.153-.792C42.217 31.004 45.717 18 57.684 18Z"></path></g></svg>
